<?xml version="1.0" encoding="UTF-8"?>
<svg xmlns="http://www.w3.org/2000/svg" viewBox="0 0 1920 1080" font-family="-apple-system, BlinkMacSystemFont, 'Segoe UI', Roboto, sans-serif">
  <!-- Background -->
  <rect width="1920" height="1080" fill="#FAFAFA"/>

  <!-- HEADER -->
  <text x="60" y="58" font-size="40" font-weight="800" fill="#0A0A0A" letter-spacing="-1">VAULX</text>
  <text x="220" y="58" font-size="32" font-weight="300" fill="#374151">— Two-sided RWA credit market on Solana</text>
  <text x="60" y="92" font-size="18" fill="#6B7280">Demand: asset-rich borrowers · Supply: yield-seeking capital · Custody-gated Anchor program at the core</text>
  <line x1="60" y1="112" x2="1860" y2="112" stroke="#D1D5DB" stroke-width="1"/>

  <!-- DEMAND LANE LABEL -->
  <text x="60" y="148" font-size="14" font-weight="700" fill="#0A0A0A" letter-spacing="3">DEMAND  ▶  BORROWER JOURNEY</text>

  <!-- ===== DEMAND BOXES ===== -->

  <!-- Box 1: Onboard -->
  <g transform="translate(60,160)">
    <rect width="280" height="250" rx="10" fill="white" stroke="#E5E7EB"/>
    <path d="M0,10 Q0,0 10,0 L270,0 Q280,0 280,10 L280,48 L0,48 Z" fill="#8B5CF6"/>
    <text x="140" y="32" font-size="18" font-weight="700" fill="white" text-anchor="middle" letter-spacing="1">1 · ONBOARD</text>
    <text x="20" y="82" font-size="17" font-weight="600" fill="#0A0A0A">▸ Civic</text>
    <text x="20" y="108" font-size="17" font-weight="600" fill="#0A0A0A">▸ gov.br</text>
    <text x="20" y="134" font-size="17" font-weight="600" fill="#0A0A0A">▸ Crossmint</text>
    <text x="20" y="160" font-size="17" font-weight="600" fill="#0A0A0A">▸ LazorKit</text>
    <line x1="20" y1="185" x2="260" y2="185" stroke="#F3F4F6"/>
    <text x="20" y="208" font-size="13" font-weight="700" fill="#8B5CF6" letter-spacing="2">WHY</text>
    <text x="20" y="228" font-size="13" fill="#374151">60-sec KYC + wallet</text>
    <text x="20" y="244" font-size="13" fill="#374151">for non-crypto users</text>
  </g>

  <!-- Box 2: Register -->
  <g transform="translate(360,160)">
    <rect width="280" height="250" rx="10" fill="white" stroke="#E5E7EB"/>
    <path d="M0,10 Q0,0 10,0 L270,0 Q280,0 280,10 L280,48 L0,48 Z" fill="#F97316"/>
    <text x="140" y="32" font-size="18" font-weight="700" fill="white" text-anchor="middle" letter-spacing="1">2 · REGISTER</text>
    <text x="20" y="82" font-size="17" font-weight="600" fill="#0A0A0A">▸ Chrono24</text>
    <text x="20" y="108" font-size="17" font-weight="600" fill="#0A0A0A">▸ WatchCharts</text>
    <text x="20" y="134" font-size="17" font-weight="600" fill="#0A0A0A">▸ RedStone</text>
    <text x="20" y="160" font-size="17" font-weight="600" fill="#0A0A0A">▸ Pyth</text>
    <line x1="20" y1="185" x2="260" y2="185" stroke="#F3F4F6"/>
    <text x="20" y="208" font-size="13" font-weight="700" fill="#F97316" letter-spacing="2">WHY</text>
    <text x="20" y="228" font-size="13" fill="#374151">Real luxury price →</text>
    <text x="20" y="244" font-size="13" fill="#374151">Solana oracle feed</text>
  </g>

  <!-- Box 3: Custody -->
  <g transform="translate(660,160)">
    <rect width="280" height="250" rx="10" fill="white" stroke="#E5E7EB"/>
    <path d="M0,10 Q0,0 10,0 L270,0 Q280,0 280,10 L280,48 L0,48 Z" fill="#EF4444"/>
    <text x="140" y="32" font-size="18" font-weight="700" fill="white" text-anchor="middle" letter-spacing="1">3 · CUSTODY</text>
    <text x="20" y="78" font-size="17" font-weight="600" fill="#0A0A0A">▸ Brinks SP</text>
    <text x="20" y="100" font-size="17" font-weight="600" fill="#0A0A0A">▸ Prosegur</text>
    <text x="20" y="122" font-size="17" font-weight="600" fill="#0A0A0A">▸ Loomis</text>
    <text x="20" y="144" font-size="17" font-weight="600" fill="#0A0A0A">▸ Gitel IoT</text>
    <text x="20" y="166" font-size="17" font-weight="600" fill="#0A0A0A">▸ SCD + CCB</text>
    <line x1="20" y1="185" x2="260" y2="185" stroke="#F3F4F6"/>
    <text x="20" y="208" font-size="13" font-weight="700" fill="#EF4444" letter-spacing="2">WHY</text>
    <text x="20" y="228" font-size="13" fill="#374151">Licensed vault + IoT</text>
    <text x="20" y="244" font-size="13" fill="#374151">+ legal fiduciary paper</text>
  </g>

  <!-- Box 4: Disburse -->
  <g transform="translate(960,160)">
    <rect width="280" height="250" rx="10" fill="white" stroke="#E5E7EB"/>
    <path d="M0,10 Q0,0 10,0 L270,0 Q280,0 280,10 L280,48 L0,48 Z" fill="#10B981"/>
    <text x="140" y="32" font-size="18" font-weight="700" fill="white" text-anchor="middle" letter-spacing="1">4 · DISBURSE</text>
    <text x="20" y="82" font-size="17" font-weight="600" fill="#0A0A0A">▸ USDC / BRZ</text>
    <text x="20" y="108" font-size="17" font-weight="600" fill="#0A0A0A">▸ TRDC = cNFT</text>
    <text x="20" y="134" font-size="17" font-weight="600" fill="#0A0A0A">▸ Bubblegum</text>
    <text x="20" y="160" font-size="17" font-weight="600" fill="#0A0A0A">▸ Anchor gate</text>
    <line x1="20" y1="185" x2="260" y2="185" stroke="#F3F4F6"/>
    <text x="20" y="208" font-size="13" font-weight="700" fill="#10B981" letter-spacing="2">WHY · THE AHA</text>
    <text x="20" y="228" font-size="13" fill="#374151">Two-condition release</text>
    <text x="20" y="244" font-size="13" fill="#374151">enforced on-chain</text>
  </g>

  <!-- Box 5: Manage -->
  <g transform="translate(1260,160)">
    <rect width="280" height="250" rx="10" fill="white" stroke="#E5E7EB"/>
    <path d="M0,10 Q0,0 10,0 L270,0 Q280,0 280,10 L280,48 L0,48 Z" fill="#EAB308"/>
    <text x="140" y="32" font-size="18" font-weight="700" fill="white" text-anchor="middle" letter-spacing="1">5 · MANAGE</text>
    <text x="20" y="82" font-size="17" font-weight="600" fill="#0A0A0A">▸ Privy (Pix)</text>
    <text x="20" y="108" font-size="17" font-weight="600" fill="#0A0A0A">▸ Quartz</text>
    <text x="20" y="134" font-size="17" font-weight="600" fill="#0A0A0A">▸ Solflare Card</text>
    <text x="20" y="160" font-size="17" font-weight="600" fill="#0A0A0A">▸ lobster.cash</text>
    <line x1="20" y1="185" x2="260" y2="185" stroke="#F3F4F6"/>
    <text x="20" y="208" font-size="13" font-weight="700" fill="#A16207" letter-spacing="2">WHY</text>
    <text x="20" y="228" font-size="13" fill="#374151">Pix off-ramp + card</text>
    <text x="20" y="244" font-size="13" fill="#374151">— like normal money</text>
  </g>

  <!-- Box 6: Repay/Default -->
  <g transform="translate(1560,160)">
    <rect width="280" height="250" rx="10" fill="white" stroke="#E5E7EB"/>
    <path d="M0,10 Q0,0 10,0 L270,0 Q280,0 280,10 L280,48 L0,48 Z" fill="#374151"/>
    <text x="140" y="32" font-size="17" font-weight="700" fill="white" text-anchor="middle" letter-spacing="1">6 · REPAY / DEFAULT</text>
    <text x="20" y="82" font-size="17" font-weight="600" fill="#0A0A0A">▸ Auction PDA</text>
    <text x="20" y="108" font-size="17" font-weight="600" fill="#0A0A0A">▸ 3-tier waterfall</text>
    <text x="20" y="134" font-size="17" font-weight="600" fill="#0A0A0A">▸ Extrajudicial</text>
    <text x="20" y="160" font-size="17" font-weight="600" fill="#0A0A0A">▸ recovery (BR law)</text>
    <line x1="20" y1="185" x2="260" y2="185" stroke="#F3F4F6"/>
    <text x="20" y="208" font-size="13" font-weight="700" fill="#374151" letter-spacing="2">WHY</text>
    <text x="20" y="228" font-size="13" fill="#374151">90% recovery target</text>
    <text x="20" y="244" font-size="13" fill="#374151">at 50% LTV</text>
  </g>

  <!-- Demand flow arrow -->
  <line x1="60" y1="430" x2="1830" y2="430" stroke="#D1D5DB" stroke-width="1.5" stroke-dasharray="4,6"/>
  <polygon points="1830,424 1845,430 1830,436" fill="#9CA3AF"/>

  <!-- ===== SPINE BAR ===== -->
  <rect x="40" y="450" width="1840" height="160" rx="14" fill="#0A0A0A"/>
  <text x="960" y="488" font-size="14" font-weight="700" fill="#10B981" text-anchor="middle" letter-spacing="4">VAULX CORE  ·  1 AUDITED ANCHOR PROGRAM  ·  4 VAULTS</text>
  <text x="960" y="540" font-size="28" font-weight="700" fill="white" text-anchor="middle" font-family="'SF Mono', Monaco, Consolas, monospace">require!(custody_confirmed ∧ terms_accepted)</text>
  <text x="960" y="565" font-size="13" font-style="italic" fill="#9CA3AF" text-anchor="middle">— the invariant the Solana runtime cannot bypass · 18–24 month replication moat</text>
  <text x="960" y="595" font-size="14" fill="#6B7280" text-anchor="middle" letter-spacing="2">Inst-USDC  ·  Inst-BRL  ·  Retail-FIDC-USDC  ·  Retail-FIDC-BRL</text>

  <!-- SUPPLY LANE LABEL -->
  <text x="60" y="648" font-size="14" font-weight="700" fill="#0A0A0A" letter-spacing="3">SUPPLY  ▶  LIQUIDITY PROVIDER JOURNEY</text>

  <!-- ===== SUPPLY BOXES ===== -->

  <!-- Box 1: Onboard -->
  <g transform="translate(60,660)">
    <rect width="280" height="250" rx="10" fill="white" stroke="#E5E7EB"/>
    <path d="M0,10 Q0,0 10,0 L270,0 Q280,0 280,10 L280,48 L0,48 Z" fill="#3B82F6"/>
    <text x="140" y="32" font-size="18" font-weight="700" fill="white" text-anchor="middle" letter-spacing="1">1 · ONBOARD</text>
    <text x="20" y="82" font-size="17" font-weight="600" fill="#0A0A0A">▸ Civic accredited</text>
    <text x="20" y="108" font-size="17" font-weight="600" fill="#0A0A0A">▸ Tokeny / 3643</text>
    <text x="20" y="134" font-size="17" font-weight="600" fill="#0A0A0A">▸ FIDC wrapper</text>
    <text x="20" y="160" font-size="17" font-weight="600" fill="#0A0A0A">▸ B2B onboarding</text>
    <line x1="20" y1="185" x2="260" y2="185" stroke="#F3F4F6"/>
    <text x="20" y="208" font-size="13" font-weight="700" fill="#3B82F6" letter-spacing="2">WHY</text>
    <text x="20" y="228" font-size="13" fill="#374151">Compliant rails for</text>
    <text x="20" y="244" font-size="13" fill="#374151">institutional + retail</text>
  </g>

  <!-- Box 2: Allocate -->
  <g transform="translate(360,660)">
    <rect width="280" height="250" rx="10" fill="white" stroke="#E5E7EB"/>
    <path d="M0,10 Q0,0 10,0 L270,0 Q280,0 280,10 L280,48 L0,48 Z" fill="#10B981"/>
    <text x="140" y="32" font-size="18" font-weight="700" fill="white" text-anchor="middle" letter-spacing="1">2 · ALLOCATE</text>
    <text x="20" y="78" font-size="16" font-weight="600" fill="#0A0A0A">▸ Inst-USDC</text>
    <text x="20" y="100" font-size="16" font-weight="600" fill="#0A0A0A">▸ Inst-BRL</text>
    <text x="20" y="122" font-size="16" font-weight="600" fill="#0A0A0A">▸ Retail-FIDC-USDC</text>
    <text x="20" y="144" font-size="16" font-weight="600" fill="#0A0A0A">▸ Retail-FIDC-BRL</text>
    <text x="20" y="166" font-size="16" font-weight="600" fill="#0A0A0A">▸ Pick risk profile</text>
    <line x1="20" y1="185" x2="260" y2="185" stroke="#F3F4F6"/>
    <text x="20" y="208" font-size="13" font-weight="700" fill="#10B981" letter-spacing="2">WHY</text>
    <text x="20" y="228" font-size="13" fill="#374151">4 vaults · 1 audited</text>
    <text x="20" y="244" font-size="13" fill="#374151">program · same code</text>
  </g>

  <!-- Box 3: Deposit -->
  <g transform="translate(660,660)">
    <rect width="280" height="250" rx="10" fill="white" stroke="#E5E7EB"/>
    <path d="M0,10 Q0,0 10,0 L270,0 Q280,0 280,10 L280,48 L0,48 Z" fill="#6B7280"/>
    <text x="140" y="32" font-size="18" font-weight="700" fill="white" text-anchor="middle" letter-spacing="1">3 · DEPOSIT</text>
    <text x="20" y="78" font-size="17" font-weight="600" fill="#0A0A0A">▸ Kamino OCC</text>
    <text x="20" y="100" font-size="17" font-weight="600" fill="#0A0A0A">▸ Plume Nest</text>
    <text x="20" y="122" font-size="17" font-weight="600" fill="#0A0A0A">▸ SCD balance sheet</text>
    <text x="20" y="144" font-size="17" font-weight="600" fill="#0A0A0A">▸ Direct USDC</text>
    <text x="20" y="166" font-size="17" font-weight="600" fill="#0A0A0A">▸ Direct BRZ</text>
    <line x1="20" y1="185" x2="260" y2="185" stroke="#F3F4F6"/>
    <text x="20" y="208" font-size="13" font-weight="700" fill="#6B7280" letter-spacing="2">WHY</text>
    <text x="20" y="228" font-size="13" fill="#374151">Solana institutional</text>
    <text x="20" y="244" font-size="13" fill="#374151">liquidity rails</text>
  </g>

  <!-- Box 4: Earn -->
  <g transform="translate(960,660)">
    <rect width="280" height="250" rx="10" fill="white" stroke="#E5E7EB"/>
    <path d="M0,10 Q0,0 10,0 L270,0 Q280,0 280,10 L280,48 L0,48 Z" fill="#F97316"/>
    <text x="140" y="32" font-size="18" font-weight="700" fill="white" text-anchor="middle" letter-spacing="1">4 · EARN</text>
    <text x="20" y="82" font-size="17" font-weight="600" fill="#0A0A0A">▸ 11% APY USDC</text>
    <text x="20" y="108" font-size="17" font-weight="600" fill="#0A0A0A">▸ ~14% APY BRL</text>
    <text x="20" y="134" font-size="17" font-weight="600" fill="#0A0A0A">▸ LTV live oracle</text>
    <text x="20" y="160" font-size="17" font-weight="600" fill="#0A0A0A">▸ Risk transparency</text>
    <line x1="20" y1="185" x2="260" y2="185" stroke="#F3F4F6"/>
    <text x="20" y="208" font-size="13" font-weight="700" fill="#F97316" letter-spacing="2">WHY</text>
    <text x="20" y="228" font-size="13" fill="#374151">Yield with on-chain</text>
    <text x="20" y="244" font-size="13" fill="#374151">collateral visibility</text>
  </g>

  <!-- Box 5: Recoveries -->
  <g transform="translate(1260,660)">
    <rect width="280" height="250" rx="10" fill="white" stroke="#E5E7EB"/>
    <path d="M0,10 Q0,0 10,0 L270,0 Q280,0 280,10 L280,48 L0,48 Z" fill="#EF4444"/>
    <text x="140" y="32" font-size="18" font-weight="700" fill="white" text-anchor="middle" letter-spacing="1">5 · RECOVERIES</text>
    <text x="20" y="82" font-size="17" font-weight="600" fill="#0A0A0A">▸ Privileged 72h</text>
    <text x="20" y="108" font-size="17" font-weight="600" fill="#0A0A0A">▸ Platform first-look</text>
    <text x="20" y="134" font-size="17" font-weight="600" fill="#0A0A0A">▸ Reseller curation</text>
    <text x="20" y="160" font-size="17" font-weight="600" fill="#0A0A0A">▸ Public auction</text>
    <line x1="20" y1="185" x2="260" y2="185" stroke="#F3F4F6"/>
    <text x="20" y="208" font-size="13" font-weight="700" fill="#EF4444" letter-spacing="2">WHY</text>
    <text x="20" y="228" font-size="13" fill="#374151">Lenders get first crack</text>
    <text x="20" y="244" font-size="13" fill="#374151">on defaulted assets</text>
  </g>

  <!-- Box 6: Distribute -->
  <g transform="translate(1560,660)">
    <rect width="280" height="250" rx="10" fill="white" stroke="#E5E7EB"/>
    <path d="M0,10 Q0,0 10,0 L270,0 Q280,0 280,10 L280,48 L0,48 Z" fill="#6B7280"/>
    <text x="140" y="32" font-size="18" font-weight="700" fill="white" text-anchor="middle" letter-spacing="1">6 · DISTRIBUTE</text>
    <text x="20" y="82" font-size="17" font-weight="600" fill="#0A0A0A">▸ Loopscale</text>
    <text x="20" y="108" font-size="17" font-weight="600" fill="#0A0A0A">▸ Jupiter</text>
    <text x="20" y="134" font-size="17" font-weight="600" fill="#0A0A0A">▸ TRDC secondary</text>
    <text x="20" y="160" font-size="17" font-weight="600" fill="#0A0A0A">▸ Composable cNFT</text>
    <line x1="20" y1="185" x2="260" y2="185" stroke="#F3F4F6"/>
    <text x="20" y="208" font-size="13" font-weight="700" fill="#6B7280" letter-spacing="2">WHY</text>
    <text x="20" y="228" font-size="13" fill="#374151">Composability =</text>
    <text x="20" y="244" font-size="13" fill="#374151">lender liquidity exit</text>
  </g>

  <!-- Supply flow arrow -->
  <line x1="60" y1="930" x2="1830" y2="930" stroke="#D1D5DB" stroke-width="1.5" stroke-dasharray="4,6"/>
  <polygon points="1830,924 1845,930 1830,936" fill="#9CA3AF"/>

  <!-- FOOTER -->
  <line x1="60" y1="970" x2="1860" y2="970" stroke="#E5E7EB"/>
  <text x="60" y="1000" font-size="14" fill="#6B7280" font-style="italic">One audited program. Four vaults. Global jurisdiction-pluggable. São Paulo Q3 2026 → LatAm → MENA → SE Asia.</text>
  <text x="1860" y="1000" font-size="14" font-weight="700" fill="#0A0A0A" text-anchor="end">vaulx.app</text>
  <text x="60" y="1030" font-size="12" fill="#9CA3AF">Custody-gated RWA lending on Solana · Frontier Hackathon 2026</text>
</svg>
